<?xml version="1.0" encoding="UTF-8"?>
<svg id="Layer_1" data-name="Layer 1" xmlns="http://www.w3.org/2000/svg" xmlns:xlink="http://www.w3.org/1999/xlink" viewBox="0 0 5000 5000">
  <defs>
    <style>
      .cls-1 {
        fill: url(#linear-gradient-2);
      }

      .cls-2 {
        fill: #476bb3;
      }

      .cls-3 {
        fill: url(#linear-gradient);
      }
    </style>
    <linearGradient id="linear-gradient" x1="728.45" y1="2499.5" x2="4271.78" y2="2499.5" gradientTransform="translate(-39.11 40) rotate(-.9)" gradientUnits="userSpaceOnUse">
      <stop offset="0" stop-color="#479cd6"/>
      <stop offset="1" stop-color="#38a6de"/>
    </linearGradient>
    <linearGradient id="linear-gradient-2" x1="2475.68" y1="2455.92" x2="2222.67" y2="3427.08" gradientTransform="translate(-39.11 40) rotate(-.9)" gradientUnits="userSpaceOnUse">
      <stop offset="0" stop-color="#fff"/>
      <stop offset="1" stop-color="#ecedee"/>
    </linearGradient>
  </defs>
  <path class="cls-3" d="m2840.56,1076.33l435.13-204.1c9.79-4.59,21.32,1.01,23.77,11.54l108.71,468.16c1.77,7.64,8.54,13.07,16.38,13.15l480.59,4.9c10.81.11,18.77,10.16,16.41,20.71l-105.19,468.97c-1.72,7.65,2.02,15.48,9.05,18.95l430.87,212.94c9.69,4.79,12.51,17.3,5.8,25.78l-298.25,376.89c-4.86,6.15-4.89,14.82-.07,21l295.81,378.8c6.66,8.52,3.76,21.01-5.96,25.74l-432.24,210.16c-7.05,3.43-10.84,11.23-9.17,18.89l102.16,469.64c2.3,10.57-5.73,20.56-16.54,20.6l-480.62,1.8c-7.84.03-14.64,5.42-16.46,13.04l-111.72,467.45c-2.51,10.52-14.08,16.04-23.84,11.39l-433.8-206.91c-7.08-3.37-15.54-1.47-20.49,4.61l-303.48,372.69c-6.83,8.39-19.65,8.34-26.42-.09l-301.07-374.64c-4.91-6.11-13.36-8.07-20.46-4.74l-435.13,204.1c-9.79,4.59-21.32-1.01-23.77-11.54l-108.71-468.17c-1.77-7.64-8.54-13.07-16.38-13.15l-480.59-4.9c-10.81-.11-18.77-10.16-16.41-20.71l105.19-468.97c1.72-7.65-2.02-15.48-9.05-18.95l-430.87-212.94c-9.69-4.79-12.51-17.3-5.8-25.78l298.25-376.89c4.86-6.15,4.89-14.82.07-21l-295.81-378.8c-6.66-8.52-3.76-21.01,5.96-25.74l432.24-210.16c7.05-3.43,10.84-11.23,9.17-18.89l-102.16-469.64c-2.3-10.57,5.73-20.56,16.54-20.6l480.62-1.8c7.84-.03,14.64-5.42,16.46-13.04l111.72-467.45c2.51-10.52,14.08-16.04,23.84-11.39l433.8,206.91c7.08,3.37,15.54,1.47,20.49-4.61l303.48-372.69c6.83-8.39,19.65-8.34,26.42.09l301.07,374.64c4.91,6.11,13.36,8.07,20.46,4.74Z"/>
  <path class="cls-2" d="m2035.15,2854l-288.55-354.88c-16.06-19.75-45.08-22.74-64.83-6.68l-191.65,155.83c-19.75,16.06-22.74,45.08-6.68,64.83l317.62,390.64,184.9,227.41c16.06,19.75,45.08,22.74,64.83,6.68l227.41-184.9,1228.56-998.93c19.75-16.06,22.74-45.08,6.68-64.83l-155.83-191.65c-16.06-19.75-45.08-22.74-64.83-6.68l-1192.81,969.86c-19.75,16.06-48.77,13.06-64.83-6.68Z"/>
  <path class="cls-1" d="m2034.55,2815.55l-288.55-354.88c-16.06-19.75-45.08-22.74-64.83-6.68l-191.65,155.83c-19.75,16.06-22.74,45.08-6.68,64.83l317.62,390.64,184.9,227.41c16.06,19.75,45.08,22.74,64.83,6.68l227.41-184.9,1228.56-998.93c19.75-16.06,22.74-45.08,6.68-64.83l-155.83-191.65c-16.06-19.75-45.08-22.74-64.83-6.68l-1192.81,969.86c-19.75,16.06-48.77,13.06-64.83-6.68Z"/>
</svg>